<svg id="Layer_1" data-name="Layer 1" xmlns="http://www.w3.org/2000/svg" viewBox="0 0 595.28 841.89"><defs><style>.cls-1{fill:#1d1d1b;}</style></defs><path class="cls-1" d="M343.07,382.12c-8.66,3-14.74,8.91-18.81,16.87-4.69,9.16-7.76,18.95-10.24,28.94-.2.76-.33,1.81-.86,2.21-3.69,2.77-7.36,5.64-11.3,8-2.41,1.44-3.53.49-3-2.41a76.32,76.32,0,0,1,3.07-12c3.89-10.45,8.12-20.78,12.16-31.19,1.62-4.22.24-7.41-4.27-10.46-3.55-2.39-6-2.32-9.39,1-3.6,3.55-6.88,7.4-10.28,11.12-1,1.08-1.9,2.23-2.85,3.33a11.24,11.24,0,0,1,.64-3.75c.37-1.26.82-2.48,1.1-3.76.62-2.94-1.19-6.2-4.37-8.05-3.61-2.12-5.53-2.06-8.36.62-2.3,2.19-4.51,4.49-6.59,6.89-2.26,2.61-4.33,5.36-6.5,8.07l-.33-.22q1.65-8,3.31-16l-.88-.71c-4.64,1.46-9.28,2.9-13.9,4.4-1.26.42-1.58,1.2-1.24,2.66a13.54,13.54,0,0,1,.24,5.41A64.46,64.46,0,0,1,248,402q-7.56,21.56-15.27,43c-.62,1.74-.51,2.71,1.5,2.72,3.32,0,6.67,0,10,0,1.46,0,2-.7,2.48-2,3.62-11.06,7.38-22.09,11-33.16a30.06,30.06,0,0,1,6-11.06c3.4-3.84,6.69-7.78,10.08-11.63.42-.48,1.26-.57,1.9-.84a5.94,5.94,0,0,1,.4,2.2,58.79,58.79,0,0,1-1.77,6.36q-8,23.68-16.19,47.36c-.66,1.88-.39,2.85,1.64,2.87,3.43,0,6.85,0,10.26-.2a3,3,0,0,0,2-1.77c3.63-11.41,7.12-22.84,10.68-34.27.68-2.18,1-4.7,2.37-6.36,4.37-5.26,9.1-10.21,13.73-15.24a13.8,13.8,0,0,1,2.63-1.56,25,25,0,0,1-.53,4.6c-1.35,3.93-2.84,7.8-4.32,11.69-3.4,9-7,17.88-10.15,26.93a35.64,35.64,0,0,0-1.83,10.56c-.17,5.47,3.09,7.68,8.11,5.71a39.18,39.18,0,0,0,7.74-4.14c4.22-2.87,8.25-6,12.51-9.19.09.62.16,1.12.21,1.59,1.32,9.22,8.92,14.22,17.9,11.92a29.39,29.39,0,0,0,17.73-13c7.3-11.23,10.9-23.92,13.62-36.88C364.6,387.54,355.38,377.81,343.07,382.12Zm2.63,27c-2.87,9.93-5.81,19.86-10.79,29a19.85,19.85,0,0,1-3.67,4.82,3,3,0,0,1-5.1-1.61,16.37,16.37,0,0,1,.13-6A204.84,204.84,0,0,1,338.43,396a57.58,57.58,0,0,1,4.27-7.67c1.08-1.66,2.58-3.16,4.88-2.39s2.15,3,2.68,5C348.77,397,347.43,403.15,345.7,409.16Z"/><path class="cls-1" d="M350.27,447.13c7.14-8.68,11.41-17.93,16.11-27,6-11.6,11.66-23.26,17.36-34.92.54-1.1.3-2.38.44-3.81a51.65,51.65,0,0,1,12.93-1.31c.35,0,1,.68,1,1-.57,5.85-1.25,11.7-1.84,17.54q-1.26,12.22-2.42,24.46c-.36,3.73-.63,7.46-.94,11.19l.51.11c.62-1,1.31-2,1.85-3.07,7.15-13.62,14.4-27.22,19.72-41.23a44,44,0,0,0,1.73-5.82,16,16,0,0,0,0-3.29l10.52-1.12c-1.69,3.19-3.19,6-4.64,8.73q-11.7,22.4-23.37,44.79c-2.19,4.23-4.28,8.48-6.36,12.73-.37.74-.83,1.17-2.15,1.15-3.23-.06-6.47-.05-9.7,0-1.51,0-1.91-.46-1.81-1.37.45-4.19.91-8.38,1.3-12.57.56-5.94,1.12-11.88,1.59-17.83.5-6.27.91-12.54,1.35-18.82a1.74,1.74,0,0,0-.46-1.42c-.53,1.1-1.12,2.2-1.6,3.31q-9.62,22-19.22,44.09a12.76,12.76,0,0,0-1.17,2.64c-.3,1.69-1.79,2.21-4,2.14S352.49,447.22,350.27,447.13Z"/><path class="cls-1" d="M241.46,381.79c-.22-.13-.44-.24-.66-.35-3-1.68-5-1.55-7.5.89a25.9,25.9,0,0,0-5,5.92c-4.77,8.8-9.24,17.75-13.83,26.64-.29.57-.51,1.19-.78,1.77s-.57,1.12-.84,1.68c3.14-12.52,8.62-24.3,11.36-37.41-5.61,1.08-10.65,1.88-15.18,4.44-.51.29-.78,1.37-.8,2.1-.05,2,.62,4.1.09,5.89-3,9.88-6.23,19.69-9.42,29.51a4.58,4.58,0,0,1-1.19,2.08c-4.18,3.63-8.32,7.29-12.69,10.66-1.2.95-3.08,1-4.67,1.48,0-1.6-.31-3.34.13-4.84,5.25-18,11.15-35.86,19.84-53.75-3.19.51-6,.53-8.5,1.42a112,112,0,0,0-28.84,14.81c-4.43,3.25-8.1,7.38-9.91,12.49a269.54,269.54,0,0,0-7.82,25.89c-1,4-.74,8.4-.29,12.55.37,3.32,2.16,3.89,5,2a112.13,112.13,0,0,0,9.24-6.81c2.69-2.21,5.12-4.7,7.47-6.87.26,3.4.24,6.87.82,10.24.7,4.11,2.69,5.28,6.43,3.38a85.25,85.25,0,0,0,12.12-7.7c3.4-2.52,6.38-5.59,10.06-8.9-2.21,5.75-4.14,10.89-6.2,16.31,4.09,1,8,.78,11.83.56a3.38,3.38,0,0,0,3.28-2.55c3.89-9.68,7.69-19.37,11.95-28.87,3-6.75,6.62-13.26,10.18-19.72.77-1.39,2.56-2.23,3.88-3.3.07,1.69.53,3.48.12,5.07-.84,3.18-2.15,6.23-3.56,10.17,1.55-.4,2.81-.38,3.64-1a48,48,0,0,0,13.11-14.66C247.61,387.5,247,385.18,241.46,381.79Zm-69.33,34.38A59.38,59.38,0,0,0,170,423.4c-1.16,5.59-5.29,8.78-9.33,12.07a5.86,5.86,0,0,1-2.22.6,5.93,5.93,0,0,1-.46-2.26c1.3-6.05,2.3-12.18,4.14-18A165.82,165.82,0,0,1,169.52,397c2.33-5.11,6.92-7.76,12.36-9.2C178.56,397.42,175.32,406.78,172.13,416.17Z"/><path class="cls-1" d="M527.33,377.48c-.08.25-.17.48-.24.73h0Z"/><path class="cls-1" d="M430.38,422.05a6.51,6.51,0,0,1,2.05-3.09c4-3.21,8.18-6.22,12.18-9.44A120.52,120.52,0,0,0,455.69,400c4.8-5,5.63-11.1,2.85-16.41-1.5-2.87-3.49-4-6.63-3.2a43.68,43.68,0,0,0-9.15,3.25c-8.83,4.55-16.23,10.67-19.93,20.27-2.05,5.31-4.17,10.63-5.74,16.09-1.42,5-2.79,10.11-3,15.24-.47,9.35,7.89,15.3,16.73,12.46,7.47-2.41,12.54-7.73,16.67-14.05,1.88-2.88,3.38-6,5.07-9.11-1-.65-1.6-1-2.28-1.46-2.26,3.69-4.25,7.23-6.57,10.57a20.05,20.05,0,0,1-9.11,7.51c-5.41,2.12-8.15,0-7.16-5.75C428.17,430.9,429.23,426.47,430.38,422.05Zm13.48-34.44a8.44,8.44,0,0,1,1.66-1.77c1.86-1.53,3.6-1.13,3.93,1.24a23.35,23.35,0,0,1,0,7.69c-1.68,8.53-1.79,8.51-8.76,13.91l-8.26,6.45C435.53,405.14,438.29,395.81,443.86,387.61Z"/><path class="cls-1" d="M482.42,403.39c.64-3.24,1.46-6.38,1.81-9.58.23-2.05.14-5-2.23-5.31-1.56-.22-3.78,1.54-5.11,3-1.83,2-1.72,4.56-.92,7.15,2.61,8.39,5.08,16.82,7.67,25.21,2.06,6.71.08,12.18-5.43,16.13a139.9,139.9,0,0,1-14.32,8.81,6,6,0,0,1-8.27-1.93,67.19,67.19,0,0,1-4.81-9.27,2.37,2.37,0,0,1,.53-2.11c3-2.84,6.15-5.56,9.49-8.53.57,2.12.93,4,1.59,5.81a46.09,46.09,0,0,0,2.8,6.21c1,1.85,3,3.16,4.87,2.15,1.27-.68,2.15-2.72,2.48-4.3.3-1.39-.25-3.05-.69-4.51-2.36-8-4.7-15.92-7.24-23.82-1.72-5.35-.6-9.94,3.5-13.54,5.43-4.78,11-9.44,16.8-13.76,3.69-2.76,6.67-1.62,8.62,2.53A13.92,13.92,0,0,1,482.42,403.39Z"/><path class="cls-1" d="M554.08,380.9c-4.65-.22-10.48-.74-17.45-1.59-3-.4-6.15-.71-9.54-1.1.07-.25.16-.48.24-.73l-.28.72h0q-8.34,24.62-16.46,49.28A16.9,16.9,0,0,0,510,432c-.15,3.33,1.26,4.22,4.26,2.68,6.1-3.1,11.05-7.65,15.61-12.63,2.05-2.25,3.94-4.65,6-7,1.49.8,2.46,1.47,1.21,3.12-8,10.56-16.85,20.22-28.18,27.38a28.9,28.9,0,0,1-3.84,2c-6.21,2.69-9.93,1.07-10.69-5.51a35,35,0,0,1,.81-13.57c5.1-17.33,10.74-34.51,16.19-51.74.06-.17.1-.33.17-.51l-10.72-1.53c-5.3-.64-12-1.43-19.86-2.39l-12.66-1.5c-4.51-.53-9.29-.92-14.31-1.41-10.05-.94-21.05-2.15-32.88-2.89-30.11-2.28-65.33-3.92-102.06-4.19h0l-1.25.39a35.47,35.47,0,0,1-4,1.09c-1.38.27-1.46.32-2,.69-.88.63-1,1.51-1.59,2.35-.83,1.19-2.46,3.57-5.27,4.22-1.29.3-3.42.37-4.24-.74a3.12,3.12,0,0,1-.41-.88,5,5,0,0,1-.09-2.34,5.45,5.45,0,0,1,3-3.51,9.82,9.82,0,0,1,5.08-.77,1.67,1.67,0,0,0,.77,0,.51.51,0,0,0,.41-.38,1,1,0,0,1,.09-.17c-17.79,0-35.86.31-53.82,1l-21.85.94c-1.8.09-3.61.13-5.41.26l-5.41.35-10.72.71-10.64.71c-3.52.22-7,.44-10.49.78l-20.51,1.83c-3.36.3-6.69.56-10,.9L151,370.82q-8,24-16,48.09-4.43,13.32-8.71,26.69c-.47,1.51-1.14,2.12-2.72,2.09-4.46-.07-8.91,0-13.78,0,9.5-26.72,15.81-45.79,20.21-58.18l2.62-7.27q1.54-4.85,3.07-9.7l-3.62.41-4.56.5L123,374l-8.74,1.16-.59.08c-1,2.86-1.93,5.72-2.9,8.59l-2.27,7.29c-5.72,17.66-11.52,35.28-17.21,52.95-.74,2.3-1.49,4-4.33,3.79-3.81-.21-7.64-.18-11.46-.32-1.57-.07-1.28-1.09-.9-2.1,3.44-9.15,7.14-18.2,10.23-27.46q6.8-20.31,13.46-40.7a5.58,5.58,0,0,1-.57.08c-21.14,3.16-38.68,5.79-50.88,8s-19.21,3-19.3,2.57,6.9-2.26,19.29-5.18c6.19-1.44,13.72-3.25,22.46-4.9l13.92-2.74c4.9-.94,10.06-2,15.49-2.89l1.33-.23q5.42-16.5,10.77-33c.73-2.25.65-4.77,1.06-8l17.61-2.45c-4.71,14-9.26,27.46-13.79,40.91,5.84-1,11.89-2,18.15-2.84l3.87-.54q4.66-14.81,9.19-29.65c.43-1.37.06-3,.06-4.46l-.21-.89,18.33-2.5c-1.65,4.86-3,8.83-4.35,12.82l-7.47,22.5c3.26-.44,6.58-1,9.94-1.33l10.26-1.18,21.07-2.4L216.28,357l11.05-1c3.69-.31,7.41-.5,11.13-.76L261,353.78l2.46-.12a11,11,0,0,1-3.62-1.45c-.61-.4-.37-.36-2.52-2-.88-.7-1.24-.95-1.21-1.29.07-.73,2-1.08,2.56-1.18a10.15,10.15,0,0,1,6.43.63c2.55,1.24,2,2.55,4.46,3.89a9.32,9.32,0,0,0,3.08,1l11-.43,11.32-.45c3.76-.15,7.53-.14,11.27-.23l22.39-.33c7.4-.07,14.75.09,22,.12,14.52,0,28.65.63,42.24,1,6.78.16,13.41.63,19.87,1l12.93.75c-.11-.06-.24-.11-.38-.17a15.27,15.27,0,0,0-3.49-1.07c-2.26-.44-8.73-1.47-11.26-5.68-.88-1.47-1.85-4.18-1-4.89a15.4,15.4,0,0,0,1.36-.76c.48-.35.78-.55.94-.92.32-.65-.09-1.08.16-1.51.39-.67,2-.48,2.24-.44a16.71,16.71,0,0,1,9.21,4.54c3.87,4.74,2.56,7.1,6.13,9.77a10.14,10.14,0,0,0,3.08,1.55c11.77.87,22.78,1.85,32.84,2.65,10.35,1,19.67,2.08,27.78,2.93s15,1.78,20.39,2.51l2.54.35c1.66-4.5,3.33-9,5-13.49.37-1,1.25-2.26,2.08-2.42,5.25-1.07,10.55-1.84,16.77-2.88l-8.15,21c2.11.33,4.11.66,6,1,3.68.72,6.9,1.42,9.73,2.1a90.08,90.08,0,0,1,12.61,3.8c5.84,2.37,7.1,4.42,7.5,6.25C568,380.62,563.39,381.35,554.08,380.9Z"/><path class="cls-1" d="M527.33,377.48c-.08.25-.17.48-.24.73h0Z"/></svg>