<svg id="Layer_1" data-name="Layer 1" xmlns="http://www.w3.org/2000/svg" viewBox="0 0 595.28 841.89"><defs><style>.cls-1{fill:#3e7cb1;}</style></defs><path class="cls-1" d="M372.57,414c-.25,1.39-1.84,2.29-4.59,2.49a22.9,22.9,0,0,1-5-.26,62.09,62.09,0,0,1-6.68-1.27l-3.12-.79c-1.44-.34-3.26-.71-5.41-1.18l-3.45-.74c-1.22-.27-2.54-.46-3.91-.71-1.76-.29-3.61-.64-5.57-1q-7.38,21.78-14.55,43.61a15.16,15.16,0,0,0-.54,4.05c-.14,3,1.12,3.75,3.79,2.39,5.44-2.78,9.86-6.83,13.92-11.27,1.83-2,3.51-4.15,5.31-6.28,1.33.71,2.19,1.31,1.08,2.79-7.11,9.42-15,18-25.12,24.4a25.26,25.26,0,0,1-3.44,1.75c-5.52,2.4-8.85.95-9.52-4.91a31.28,31.28,0,0,1,.72-12.09c4.54-15.46,9.58-30.77,14.43-46.14-6.11-.57-12.68-1-19.42-1q-6.43,19.33-12.85,38.69c-2.62,7.92-5.23,15.85-7.75,23.8-.43,1.34-1,1.89-2.43,1.87-4-.07-7.94,0-12.29,0,8.47-23.82,14.1-40.82,18-51.86l2.33-6.49c.61-1.91,1.22-3.83,1.82-5.74q-1.35.06-2.7.15c-5.67.32-11.29.86-16.69,1.55l-1.86,5.52-2,6.49c-5.1,15.74-10.28,31.46-15.34,47.21-.66,2.05-1.33,3.53-3.86,3.38-3.4-.19-6.82-.16-10.22-.29-1.41-.05-1.15-1-.81-1.87,3.06-8.15,6.37-16.23,9.13-24.48q5.66-16.9,11.2-33.85c-4.77.85-9.21,1.78-13.16,2.71-5.79,1.43-10.63,2.56-14,3.45s-5.37,1.14-5.5.78,1.64-1.41,4.89-3a141.09,141.09,0,0,1,13.9-5.66c3-1,6.17-2.1,9.63-3.09l5.35-1.47,1-.28q4.94-15,9.82-30.12c.65-2,.58-4.25.94-7.17l15.7-2.17-12.25,36.32,2.44-.43c4.13-.82,8.39-1.28,12.66-1.87,1.48-.17,3-.32,4.45-.46q4.19-13.26,8.24-26.55c.37-1.22.05-2.64.05-4l-.18-.79,16.33-2.24c-1.47,4.34-2.69,7.88-3.87,11.43l-7.08,21.3c6.93-.22,13.7-.12,20,.22,1.68-4.57,3.37-9.14,5.11-13.69.32-.86,1.1-2,1.85-2.16,4.68-.94,9.41-1.64,14.95-2.56-2.63,6.76-5.14,13.24-7.63,19.67a203.6,203.6,0,0,1,23.4,4.24,23.93,23.93,0,0,1,6.12,2.28,10.23,10.23,0,0,1,3.17,2.49A5.61,5.61,0,0,1,372.57,414Z"/></svg>