<svg id="Layer_1" data-name="Layer 1" xmlns="http://www.w3.org/2000/svg" viewBox="0 0 474.8 740.56"><defs><style>.cls-1{fill:#fff;}.cls-1,.cls-3{stroke:#3e7cb1;}.cls-1,.cls-2,.cls-3{stroke-miterlimit:10;}.cls-2,.cls-3{fill:none;}.cls-2{stroke:#1d1d1b;}.cls-4{fill:#d2bfa3;}.cls-5{fill:#1c39bb;}.cls-6{fill:#3e7cb1;}</style></defs><rect class="cls-1" x="0.5" y="116.14" width="31.59" height="63.18" rx="15.79"/><rect class="cls-1" x="32.09" y="116.14" width="31.59" height="63.18"/><rect class="cls-2" x="0.5" y="15.87" width="31.59" height="63.18"/><path class="cls-2" d="M133.85,98.22v31.59H102.26V66.63h0A31.59,31.59,0,0,1,133.85,98.22Z" transform="translate(-63.71 -50.76)"/><path class="cls-2" d="M171.9,82.43v47.38H140.31V82.43a15.8,15.8,0,0,1,15.8-15.8h0A15.79,15.79,0,0,1,171.9,82.43Z" transform="translate(-63.71 -50.76)"/><path class="cls-2" d="M210,66.63v31.6a31.58,31.58,0,0,1-31.59,31.58h0V98.22A31.59,31.59,0,0,1,210,66.63Z" transform="translate(-63.71 -50.76)"/><path class="cls-2" d="M247.72,82.43V114a15.79,15.79,0,0,1-15.8,15.79H216.13V82.43a15.79,15.79,0,0,1,15.79-15.8h0A15.8,15.8,0,0,1,247.72,82.43Z" transform="translate(-63.71 -50.76)"/><rect class="cls-2" x="190.02" y="15.87" width="31.59" height="63.18" rx="15.79"/><path class="cls-1" d="M159,166.89v63.19H127.39v-31.6A31.59,31.59,0,0,1,159,166.89Z" transform="translate(-63.71 -50.76)"/><path class="cls-1" d="M190.56,182.69v47.39H159V182.69a15.8,15.8,0,0,1,15.8-15.8h0A15.8,15.8,0,0,1,190.56,182.69Z" transform="translate(-63.71 -50.76)"/><path class="cls-1" d="M222.15,166.89v31.6a31.59,31.59,0,0,1-31.59,31.59h0v-31.6a31.59,31.59,0,0,1,31.59-31.59Z" transform="translate(-63.71 -50.76)"/><path class="cls-1" d="M253.73,198.48h0a31.58,31.58,0,0,1-31.58,31.59h0V166.89h0A31.59,31.59,0,0,1,253.73,198.48Z" transform="translate(-63.71 -50.76)"/><path class="cls-1" d="M285.32,182.69v31.59a15.79,15.79,0,0,1-15.79,15.8h-15.8V182.69a15.8,15.8,0,0,1,15.8-15.8h0A15.8,15.8,0,0,1,285.32,182.69Z" transform="translate(-63.71 -50.76)"/><rect class="cls-1" x="221.61" y="116.14" width="31.59" height="63.18"/><path class="cls-1" d="M348.49,198.48v31.6H316.91V166.89h0A31.59,31.59,0,0,1,348.49,198.48Z" transform="translate(-63.71 -50.76)"/><path class="cls-1" d="M380.08,166.89v31.6a31.59,31.59,0,0,1-31.59,31.59h0V166.89Z" transform="translate(-63.71 -50.76)"/><path class="cls-1" d="M411.67,166.89v63.19H380.08v-31.6a31.59,31.59,0,0,1,31.59-31.59Z" transform="translate(-63.71 -50.76)"/><rect class="cls-1" x="347.96" y="116.14" width="31.59" height="63.18"/><path class="cls-1" d="M474.84,166.89v31.6a31.59,31.59,0,0,1-31.59,31.59h0V166.89Z" transform="translate(-63.71 -50.76)"/><rect class="cls-1" x="411.13" y="116.14" width="31.59" height="63.18"/><path class="cls-1" d="M538,166.89v63.19H506.43v-31.6A31.59,31.59,0,0,1,538,166.89Z" transform="translate(-63.71 -50.76)"/><path class="cls-1" d="M95.8,230.08v31.59a31.59,31.59,0,0,1-31.59,31.59h0V230.08Z" transform="translate(-63.71 -50.76)"/><path class="cls-1" d="M127.39,261.66v31.6H95.8V230.08h0A31.59,31.59,0,0,1,127.39,261.66Z" transform="translate(-63.71 -50.76)"/><path class="cls-1" d="M159,230.08v47.39a15.79,15.79,0,0,1-15.79,15.79h0a15.79,15.79,0,0,1-15.79-15.79V230.08Z" transform="translate(-63.71 -50.76)"/><path class="cls-1" d="M190.56,230.08v63.18h0A31.59,31.59,0,0,1,159,261.67h0a31.58,31.58,0,0,1,31.59-31.58Z" transform="translate(-63.71 -50.76)"/><path class="cls-1" d="M222.15,230.08v63.18h0a31.59,31.59,0,0,1-31.59-31.59V230.08Z" transform="translate(-63.71 -50.76)"/><path class="cls-1" d="M253.73,230.08v47.39a15.79,15.79,0,0,1-15.79,15.79h0a15.79,15.79,0,0,1-15.79-15.79v-31.6a15.79,15.79,0,0,1,15.79-15.79Z" transform="translate(-63.71 -50.76)"/><path class="cls-1" d="M285.32,230.08v63.18h0a31.59,31.59,0,0,1-31.59-31.59V230.08Z" transform="translate(-63.71 -50.76)"/><path class="cls-1" d="M316.91,230.08v63.18H285.32v-31.6a31.58,31.58,0,0,1,31.59-31.58Z" transform="translate(-63.71 -50.76)"/><path class="cls-1" d="M348.49,230.08v63.18h0a31.58,31.58,0,0,1-31.58-31.59V230.08Z" transform="translate(-63.71 -50.76)"/><path class="cls-1" d="M380.08,230.08v31.59a31.59,31.59,0,0,1-31.59,31.59h0v-31.6a31.59,31.59,0,0,1,31.59-31.58Z" transform="translate(-63.71 -50.76)"/><path class="cls-1" d="M411.67,230.08v63.18h0a31.59,31.59,0,0,1-31.59-31.59h0a31.58,31.58,0,0,1,31.59-31.58Z" transform="translate(-63.71 -50.76)"/><path class="cls-1" d="M443.25,230.08v63.18H411.67v-31.6a31.58,31.58,0,0,1,31.58-31.58Z" transform="translate(-63.71 -50.76)"/><path class="cls-1" d="M474.84,230.08v63.18h0a31.59,31.59,0,0,1-31.59-31.59h0a31.59,31.59,0,0,1,31.59-31.58Z" transform="translate(-63.71 -50.76)"/><path class="cls-1" d="M506.43,230.08v31.59a31.59,31.59,0,0,1-31.59,31.59h0V230.08Z" transform="translate(-63.71 -50.76)"/><rect class="cls-1" x="442.72" y="179.32" width="31.59" height="63.18"/><path class="cls-1" d="M95.8,324.85v31.59H64.21V293.26h0A31.59,31.59,0,0,1,95.8,324.85Z" transform="translate(-63.71 -50.76)"/><path class="cls-1" d="M127.39,293.26v63.18h0A31.58,31.58,0,0,1,95.8,324.86v-31.6Z" transform="translate(-63.71 -50.76)"/><path class="cls-1" d="M159,293.26v31.6a31.58,31.58,0,0,1-31.58,31.58h0V324.85A31.58,31.58,0,0,1,159,293.26Z" transform="translate(-63.71 -50.76)"/><path class="cls-1" d="M190.56,293.26v63.18h0A31.58,31.58,0,0,1,159,324.86v-31.6Z" transform="translate(-63.71 -50.76)"/><path class="cls-1" d="M222.15,324.85v31.59H190.56V293.26h0A31.59,31.59,0,0,1,222.15,324.85Z" transform="translate(-63.71 -50.76)"/><rect class="cls-3" x="158.43" y="242.5" width="31.59" height="63.18"/><path class="cls-1" d="M285.32,324.85v31.59h0a31.58,31.58,0,0,1-31.59-31.58v-31.6h0A31.59,31.59,0,0,1,285.32,324.85Z" transform="translate(-63.71 -50.76)"/><path class="cls-1" d="M316.91,293.26v63.18H285.32V324.85a31.59,31.59,0,0,1,31.59-31.59Z" transform="translate(-63.71 -50.76)"/><rect class="cls-1" x="253.19" y="242.5" width="31.59" height="63.18"/><path class="cls-1" d="M380.08,293.26v63.18H348.49V324.85a31.59,31.59,0,0,1,31.59-31.59Z" transform="translate(-63.71 -50.76)"/><path class="cls-1" d="M411.67,293.26v47.39a15.79,15.79,0,0,1-15.8,15.79h0a15.79,15.79,0,0,1-15.79-15.79V293.26Z" transform="translate(-63.71 -50.76)"/><path class="cls-1" d="M443.25,293.26v63.18H411.67V324.85a31.58,31.58,0,0,1,31.58-31.59Z" transform="translate(-63.71 -50.76)"/><rect class="cls-1" x="379.54" y="242.5" width="31.59" height="63.18"/><path class="cls-1" d="M506.43,293.26v63.18H474.84V324.85a31.59,31.59,0,0,1,31.59-31.59Z" transform="translate(-63.71 -50.76)"/><path class="cls-1" d="M538,324.85v31.59H506.43V293.26h0A31.58,31.58,0,0,1,538,324.85Z" transform="translate(-63.71 -50.76)"/><rect class="cls-1" x="442.72" y="432.05" width="31.59" height="63.18" rx="15.79"/><rect class="cls-1" x="411.13" y="432.05" width="31.59" height="63.18"/><path class="cls-1" d="M443.25,546V482.81h31.59V514.4A31.59,31.59,0,0,1,443.25,546Z" transform="translate(-63.71 -50.76)"/><path class="cls-1" d="M411.67,530.2V482.81h31.58V530.2A15.79,15.79,0,0,1,427.46,546h0A15.79,15.79,0,0,1,411.67,530.2Z" transform="translate(-63.71 -50.76)"/><path class="cls-1" d="M380.08,546V514.4a31.59,31.59,0,0,1,31.59-31.59h0V514.4A31.59,31.59,0,0,1,380.08,546Z" transform="translate(-63.71 -50.76)"/><path class="cls-1" d="M348.49,514.4h0a31.59,31.59,0,0,1,31.59-31.59h0V546h0A31.59,31.59,0,0,1,348.49,514.4Z" transform="translate(-63.71 -50.76)"/><path class="cls-1" d="M316.91,530.2V498.6a15.79,15.79,0,0,1,15.79-15.79h15.79V530.2A15.79,15.79,0,0,1,332.7,546h0A15.79,15.79,0,0,1,316.91,530.2Z" transform="translate(-63.71 -50.76)"/><rect class="cls-1" x="221.61" y="432.05" width="31.59" height="63.18"/><path class="cls-1" d="M253.73,514.4V482.81h31.59V546h0A31.59,31.59,0,0,1,253.73,514.4Z" transform="translate(-63.71 -50.76)"/><path class="cls-1" d="M222.15,546V514.4a31.58,31.58,0,0,1,31.58-31.59h0V546Z" transform="translate(-63.71 -50.76)"/><path class="cls-1" d="M190.56,546V482.81h31.59V514.4A31.59,31.59,0,0,1,190.56,546Z" transform="translate(-63.71 -50.76)"/><rect class="cls-1" x="95.26" y="432.05" width="31.59" height="63.18"/><path class="cls-1" d="M127.39,546V514.4A31.58,31.58,0,0,1,159,482.81h0V546Z" transform="translate(-63.71 -50.76)"/><rect class="cls-1" x="32.09" y="432.05" width="31.59" height="63.18"/><path class="cls-1" d="M64.21,546V482.81H95.8V514.4A31.59,31.59,0,0,1,64.21,546Z" transform="translate(-63.71 -50.76)"/><path class="cls-1" d="M506.43,482.81v-31.6A31.58,31.58,0,0,1,538,419.63h0v63.18Z" transform="translate(-63.71 -50.76)"/><path class="cls-1" d="M474.84,451.22V419.63h31.59v63.18h0A31.59,31.59,0,0,1,474.84,451.22Z" transform="translate(-63.71 -50.76)"/><path class="cls-1" d="M443.25,482.81V435.42a15.79,15.79,0,0,1,15.8-15.79h0a15.79,15.79,0,0,1,15.79,15.79v47.39Z" transform="translate(-63.71 -50.76)"/><path class="cls-1" d="M411.67,482.81V419.63h0a31.58,31.58,0,0,1,31.58,31.58h0a31.58,31.58,0,0,1-31.58,31.59Z" transform="translate(-63.71 -50.76)"/><path class="cls-1" d="M380.08,482.81V419.63h0a31.58,31.58,0,0,1,31.59,31.58v31.6Z" transform="translate(-63.71 -50.76)"/><path class="cls-1" d="M348.49,482.81V435.42a15.79,15.79,0,0,1,15.8-15.79h0a15.79,15.79,0,0,1,15.79,15.79V467a15.79,15.79,0,0,1-15.79,15.8Z" transform="translate(-63.71 -50.76)"/><path class="cls-1" d="M316.91,482.81V419.63h0a31.58,31.58,0,0,1,31.58,31.58v31.6Z" transform="translate(-63.71 -50.76)"/><path class="cls-1" d="M285.32,482.81V419.63h31.59v31.59a31.59,31.59,0,0,1-31.59,31.59Z" transform="translate(-63.71 -50.76)"/><path class="cls-1" d="M253.73,482.81V419.63h0a31.58,31.58,0,0,1,31.59,31.58v31.6Z" transform="translate(-63.71 -50.76)"/><path class="cls-1" d="M222.15,482.81v-31.6a31.58,31.58,0,0,1,31.58-31.58h0v31.59a31.58,31.58,0,0,1-31.58,31.59Z" transform="translate(-63.71 -50.76)"/><path class="cls-1" d="M190.56,482.81V419.63h0a31.59,31.59,0,0,1,31.59,31.58h0a31.59,31.59,0,0,1-31.59,31.59Z" transform="translate(-63.71 -50.76)"/><path class="cls-1" d="M159,482.81V419.63h31.59v31.59A31.59,31.59,0,0,1,159,482.81Z" transform="translate(-63.71 -50.76)"/><path class="cls-1" d="M127.39,482.81V419.63h0A31.58,31.58,0,0,1,159,451.21h0a31.58,31.58,0,0,1-31.58,31.59Z" transform="translate(-63.71 -50.76)"/><path class="cls-1" d="M95.8,482.81v-31.6a31.58,31.58,0,0,1,31.59-31.58h0v63.18Z" transform="translate(-63.71 -50.76)"/><rect class="cls-1" x="0.5" y="368.87" width="31.59" height="63.18"/><path class="cls-1" d="M506.43,388v-31.6H538v63.19h0A31.59,31.59,0,0,1,506.43,388Z" transform="translate(-63.71 -50.76)"/><path class="cls-1" d="M474.84,419.63V356.44h0A31.59,31.59,0,0,1,506.43,388v31.6Z" transform="translate(-63.71 -50.76)"/><path class="cls-1" d="M443.25,419.63V388a31.59,31.59,0,0,1,31.59-31.59h0V388a31.59,31.59,0,0,1-31.59,31.59Z" transform="translate(-63.71 -50.76)"/><path class="cls-1" d="M411.67,419.63V356.44h0A31.58,31.58,0,0,1,443.25,388v31.6Z" transform="translate(-63.71 -50.76)"/><path class="cls-1" d="M380.08,388v-31.6h31.59v63.19h0A31.59,31.59,0,0,1,380.08,388Z" transform="translate(-63.71 -50.76)"/><rect class="cls-3" x="284.78" y="305.68" width="31.59" height="63.18"/><path class="cls-1" d="M316.91,388v-31.6h0A31.58,31.58,0,0,1,348.49,388v31.6h0A31.59,31.59,0,0,1,316.91,388Z" transform="translate(-63.71 -50.76)"/><path class="cls-1" d="M285.32,419.63V356.44h31.59V388a31.6,31.6,0,0,1-31.59,31.59Z" transform="translate(-63.71 -50.76)"/><rect class="cls-1" x="190.02" y="305.68" width="31.59" height="63.18"/><path class="cls-1" d="M222.15,419.63V356.44h31.58V388a31.59,31.59,0,0,1-31.58,31.59Z" transform="translate(-63.71 -50.76)"/><path class="cls-1" d="M190.56,419.63V372.24a15.79,15.79,0,0,1,15.79-15.8h0a15.8,15.8,0,0,1,15.8,15.8v47.39Z" transform="translate(-63.71 -50.76)"/><path class="cls-1" d="M159,419.63V356.44h31.59V388A31.59,31.59,0,0,1,159,419.63Z" transform="translate(-63.71 -50.76)"/><rect class="cls-1" x="63.67" y="305.68" width="31.59" height="63.18"/><path class="cls-1" d="M95.8,419.63V356.44h31.59V388A31.6,31.6,0,0,1,95.8,419.63Z" transform="translate(-63.71 -50.76)"/><path class="cls-1" d="M64.21,388v-31.6H95.8v63.19h0A31.59,31.59,0,0,1,64.21,388Z" transform="translate(-63.71 -50.76)"/><path class="cls-4" d="M538,743.93v31.6a15.79,15.79,0,0,1-31.58,0v-31.6a15.79,15.79,0,0,1,31.58,0Z" transform="translate(-63.71 -50.76)"/><rect class="cls-5" x="411.13" y="677.38" width="31.59" height="63.18"/><path class="cls-6" d="M474.84,728.14v31.59a31.59,31.59,0,0,1-31.59,31.59V728.14Z" transform="translate(-63.71 -50.76)"/><path class="cls-4" d="M443.25,728.14v47.39a15.8,15.8,0,0,1-31.59,0V728.14Z" transform="translate(-63.71 -50.76)"/><path class="cls-6" d="M411.66,728.14v31.59a31.58,31.58,0,0,1-31.58,31.59v-31.6A31.58,31.58,0,0,1,411.66,728.14Z" transform="translate(-63.71 -50.76)"/><path class="cls-5" d="M380.08,728.14v63.18a31.58,31.58,0,0,1-31.59-31.59h0A31.58,31.58,0,0,1,380.08,728.14Z" transform="translate(-63.71 -50.76)"/><path class="cls-6" d="M348.49,728.14v47.39a15.8,15.8,0,0,1-31.59,0v-31.6a15.8,15.8,0,0,1,15.8-15.79Z" transform="translate(-63.71 -50.76)"/><rect class="cls-6" x="221.61" y="677.38" width="31.58" height="63.18"/><path class="cls-4" d="M285.32,728.14v63.18a31.58,31.58,0,0,1-31.59-31.59V728.14Z" transform="translate(-63.71 -50.76)"/><path class="cls-4" d="M253.73,728.14v63.18H222.14v-31.6A31.59,31.59,0,0,1,253.73,728.14Z" transform="translate(-63.71 -50.76)"/><path class="cls-6" d="M222.14,728.14v31.59a31.58,31.58,0,0,1-31.58,31.59V728.14Z" transform="translate(-63.71 -50.76)"/><rect class="cls-4" x="95.26" y="677.38" width="31.59" height="63.18"/><path class="cls-5" d="M159,728.14v63.18H127.38v-31.6A31.58,31.58,0,0,1,159,728.14Z" transform="translate(-63.71 -50.76)"/><rect class="cls-6" x="32.09" y="677.38" width="31.58" height="63.18"/><path class="cls-5" d="M95.8,728.14v31.59a31.59,31.59,0,0,1-31.59,31.59V728.14Z" transform="translate(-63.71 -50.76)"/><path class="cls-6" d="M538,665v63.19H506.43v-31.6A31.59,31.59,0,0,1,538,665Z" transform="translate(-63.71 -50.76)"/><path class="cls-6" d="M506.43,665v63.19a31.58,31.58,0,0,1-31.59-31.59V665Z" transform="translate(-63.71 -50.76)"/><path class="cls-4" d="M474.84,680.75v47.39H443.25V680.75A15.8,15.8,0,0,1,459,665h0A15.8,15.8,0,0,1,474.84,680.75Z" transform="translate(-63.71 -50.76)"/><path class="cls-6" d="M443.25,696.54h0a31.59,31.59,0,0,1-31.59,31.59V665a31.6,31.6,0,0,1,31.59,31.59Z" transform="translate(-63.71 -50.76)"/><path class="cls-5" d="M411.66,696.54v31.6H380.08V665a31.6,31.6,0,0,1,31.58,31.59Z" transform="translate(-63.71 -50.76)"/><path class="cls-4" d="M380.08,680.75v31.59a15.8,15.8,0,0,1-15.8,15.8H348.49V680.75a15.8,15.8,0,0,1,31.59,0Z" transform="translate(-63.71 -50.76)"/><path class="cls-6" d="M348.49,696.54v31.6H316.9V665a31.6,31.6,0,0,1,31.59,31.59Z" transform="translate(-63.71 -50.76)"/><path class="cls-4" d="M316.9,665v31.6a31.58,31.58,0,0,1-31.58,31.59V665Z" transform="translate(-63.71 -50.76)"/><path class="cls-6" d="M285.32,696.54v31.6H253.73V665a31.6,31.6,0,0,1,31.59,31.59Z" transform="translate(-63.71 -50.76)"/><path class="cls-6" d="M253.73,665v31.6a31.59,31.59,0,0,1-31.59,31.59v-31.6A31.6,31.6,0,0,1,253.73,665Z" transform="translate(-63.71 -50.76)"/><path class="cls-5" d="M222.14,696.54h0a31.58,31.58,0,0,1-31.58,31.59V665a31.6,31.6,0,0,1,31.58,31.59Z" transform="translate(-63.71 -50.76)"/><path class="cls-6" d="M190.56,665v31.6A31.59,31.59,0,0,1,159,728.14V665Z" transform="translate(-63.71 -50.76)"/><path class="cls-4" d="M159,696.54h0a31.59,31.59,0,0,1-31.59,31.59V665A31.6,31.6,0,0,1,159,696.54Z" transform="translate(-63.71 -50.76)"/><path class="cls-5" d="M127.38,665v63.19H95.8v-31.6A31.59,31.59,0,0,1,127.38,665Z" transform="translate(-63.71 -50.76)"/><rect class="cls-4" x="0.5" y="614.19" width="31.59" height="63.19"/><path class="cls-6" d="M538,601.77V665a31.58,31.58,0,0,1-31.58-31.58v-31.6Z" transform="translate(-63.71 -50.76)"/><path class="cls-4" d="M506.43,633.36V665H474.84V601.77a31.6,31.6,0,0,1,31.59,31.59Z" transform="translate(-63.71 -50.76)"/><path class="cls-5" d="M474.84,601.77v31.6A31.58,31.58,0,0,1,443.25,665V633.36A31.59,31.59,0,0,1,474.84,601.77Z" transform="translate(-63.71 -50.76)"/><path class="cls-6" d="M443.25,633.36V665H411.66V601.77a31.58,31.58,0,0,1,31.59,31.59Z" transform="translate(-63.71 -50.76)"/><path class="cls-4" d="M411.66,601.77V665a31.58,31.58,0,0,1-31.58-31.58v-31.6Z" transform="translate(-63.71 -50.76)"/><rect class="cls-6" x="284.78" y="551.01" width="31.59" height="63.18"/><path class="cls-4" d="M348.49,633.36V665a31.58,31.58,0,0,1-31.59-31.58v-31.6a31.58,31.58,0,0,1,31.59,31.59Z" transform="translate(-63.71 -50.76)"/><path class="cls-5" d="M316.9,601.77v31.6A31.58,31.58,0,0,1,285.32,665V601.77Z" transform="translate(-63.71 -50.76)"/><rect class="cls-6" x="190.02" y="551.01" width="31.59" height="63.18"/><path class="cls-5" d="M253.73,601.77v31.6A31.58,31.58,0,0,1,222.14,665V601.77Z" transform="translate(-63.71 -50.76)"/><path class="cls-4" d="M222.14,617.57V665H190.56V617.57a15.79,15.79,0,0,1,31.58,0Z" transform="translate(-63.71 -50.76)"/><path class="cls-5" d="M190.56,601.77v31.6A31.59,31.59,0,0,1,159,665V601.77Z" transform="translate(-63.71 -50.76)"/><rect class="cls-6" x="63.67" y="551.01" width="31.59" height="63.18"/><path class="cls-4" d="M127.38,601.77v31.6A31.58,31.58,0,0,1,95.8,665V601.77Z" transform="translate(-63.71 -50.76)"/><path class="cls-6" d="M95.8,601.77V665a31.58,31.58,0,0,1-31.59-31.58v-31.6Z" transform="translate(-63.71 -50.76)"/><path class="cls-6" d="M444.2,92a13.34,13.34,0,0,0-7.62,6.84,54.28,54.28,0,0,0-4.15,11.72c-.08.31-.13.73-.34.9-1.5,1.12-3,2.28-4.58,3.25-1,.59-1.43.2-1.2-1a31.32,31.32,0,0,1,1.24-4.87c1.58-4.23,3.29-8.42,4.93-12.64.66-1.7.09-3-1.73-4.23-1.44-1-2.44-.94-3.81.39s-2.78,3-4.16,4.51c-.4.44-.77.9-1.15,1.35a4.25,4.25,0,0,1,.25-1.52c.15-.51.34-1,.45-1.52a3.22,3.22,0,0,0-1.77-3.27c-1.46-.85-2.24-.83-3.39.25q-1.4,1.33-2.67,2.79c-.92,1.06-1.75,2.18-2.63,3.27l-.13-.09c.44-2.15.89-4.31,1.33-6.46l-.35-.29-5.63,1.78c-.51.17-.64.49-.5,1.08a5.41,5.41,0,0,1,.09,2.19,25.6,25.6,0,0,1-1,3.62q-3.06,8.73-6.19,17.44c-.25.7-.2,1.09.61,1.1,1.35,0,2.7,0,4.06,0,.59,0,.82-.28,1-.83,1.47-4.48,3-9,4.44-13.43A11.93,11.93,0,0,1,412,99.85c1.37-1.56,2.7-3.16,4.08-4.72.17-.19.51-.23.77-.34a2.52,2.52,0,0,1,.16.9,23.37,23.37,0,0,1-.72,2.57q-3.24,9.6-6.56,19.19c-.26.76-.15,1.16.67,1.16,1.39,0,2.77,0,4.16-.08a1.2,1.2,0,0,0,.82-.71c1.47-4.63,2.88-9.26,4.32-13.89a7.75,7.75,0,0,1,1-2.57c1.76-2.14,3.68-4.14,5.56-6.18a5.06,5.06,0,0,1,1.06-.63,9.88,9.88,0,0,1-.21,1.86c-.55,1.59-1.15,3.16-1.75,4.74-1.38,3.63-2.84,7.24-4.12,10.91a14.73,14.73,0,0,0-.74,4.28c-.06,2.21,1.25,3.11,3.29,2.31a15.81,15.81,0,0,0,3.14-1.68c1.7-1.16,3.34-2.44,5.06-3.72,0,.25.07.45.09.64a5.56,5.56,0,0,0,7.25,4.83,11.85,11.85,0,0,0,7.18-5.26c3-4.55,4.42-9.69,5.52-14.95C452.93,94.19,449.19,90.24,444.2,92Zm1.07,11a57.48,57.48,0,0,1-4.37,11.75,8.14,8.14,0,0,1-1.49,2,1.2,1.2,0,0,1-2.06-.65,6.41,6.41,0,0,1,0-2.43,82.84,82.84,0,0,1,4.92-15.94,23.72,23.72,0,0,1,1.74-3.11c.43-.67,1-1.28,2-1s.87,1.21,1.09,2C446.51,98,446,100.51,445.27,103Z" transform="translate(-63.71 -50.76)"/><path class="cls-6" d="M447.12,118.33c2.89-3.51,4.62-7.26,6.53-11,2.42-4.69,4.72-9.42,7-14.14a4.66,4.66,0,0,0,.18-1.54,21.2,21.2,0,0,1,5.24-.54c.14,0,.41.28.4.42-.23,2.37-.51,4.73-.75,7.1-.34,3.31-.66,6.61-1,9.91-.14,1.51-.25,3-.38,4.53l.21,0c.25-.41.53-.82.75-1.24a157.29,157.29,0,0,0,8-16.71,17.74,17.74,0,0,0,.7-2.36,6.44,6.44,0,0,0,0-1.33l4.27-.45c-.69,1.29-1.29,2.41-1.88,3.53q-4.74,9.08-9.47,18.15c-.89,1.71-1.73,3.44-2.58,5.16-.15.3-.33.47-.87.46q-2,0-3.93,0c-.61,0-.77-.19-.73-.56.18-1.69.36-3.39.52-5.09.23-2.41.46-4.82.65-7.23s.37-5.08.55-7.62a.72.72,0,0,0-.19-.58c-.22.45-.45.9-.65,1.35q-3.9,8.92-7.79,17.86a6.23,6.23,0,0,0-.47,1.07c-.12.68-.73.89-1.64.87Z" transform="translate(-63.71 -50.76)"/><path class="cls-6" d="M403,91.86a1.74,1.74,0,0,0-.27-.14,2.17,2.17,0,0,0-3,.36,10.32,10.32,0,0,0-2,2.4c-1.93,3.56-3.75,7.19-5.6,10.79-.12.23-.21.48-.32.72s-.23.45-.34.68c1.27-5.08,3.49-9.85,4.6-15.16a19.76,19.76,0,0,0-6.15,1.8,1.14,1.14,0,0,0-.32.85,9.6,9.6,0,0,1,0,2.39c-1.2,4-2.52,8-3.81,12a1.84,1.84,0,0,1-.48.84c-1.7,1.48-3.38,3-5.15,4.32a5.31,5.31,0,0,1-1.89.6,8.51,8.51,0,0,1,.05-2,135.39,135.39,0,0,1,8-21.77,19.88,19.88,0,0,0-3.44.57,45.33,45.33,0,0,0-11.68,6,10.92,10.92,0,0,0-4,5.06c-1.22,3.44-2.3,7-3.17,10.49a14.91,14.91,0,0,0-.12,5.08c.15,1.35.88,1.58,2,.82s2.54-1.79,3.74-2.76,2.07-1.9,3-2.78a41.42,41.42,0,0,0,.33,4.15c.28,1.66,1.09,2.13,2.6,1.37a35.58,35.58,0,0,0,4.92-3.13c1.37-1,2.58-2.26,4.07-3.6-.89,2.33-1.68,4.41-2.51,6.61a15.87,15.87,0,0,0,4.79.23,1.38,1.38,0,0,0,1.33-1c1.58-3.92,3.12-7.85,4.84-11.7,1.23-2.73,2.69-5.37,4.13-8,.31-.57,1-.91,1.57-1.34a7.45,7.45,0,0,1,.05,2c-.34,1.29-.87,2.53-1.44,4.12a5,5,0,0,0,1.47-.39,19.49,19.49,0,0,0,5.31-5.94C405.53,94.17,405.28,93.23,403,91.86ZM375,105.79a23,23,0,0,0-.88,2.93c-.47,2.26-2.14,3.55-3.78,4.89a2.48,2.48,0,0,1-.9.24,2.39,2.39,0,0,1-.18-.92c.52-2.45.93-4.93,1.68-7.31a68.06,68.06,0,0,1,3-7.62,7,7,0,0,1,5-3.72C377.55,98.19,376.24,102,375,105.79Z" transform="translate(-63.71 -50.76)"/><path class="cls-6" d="M518.86,90.11c0,.1-.07.2-.1.3h0Z" transform="translate(-63.71 -50.76)"/><path class="cls-6" d="M479.58,108.17a2.58,2.58,0,0,1,.83-1.25c1.62-1.3,3.31-2.52,4.93-3.83a47.4,47.4,0,0,0,4.49-3.87A5.54,5.54,0,0,0,491,92.57a2.13,2.13,0,0,0-2.69-1.29,18,18,0,0,0-3.71,1.32c-3.58,1.84-6.57,4.32-8.07,8.21-.83,2.15-1.69,4.3-2.33,6.52A27.89,27.89,0,0,0,473,113.5a5,5,0,0,0,6.77,5,12.88,12.88,0,0,0,6.76-5.69c.76-1.17,1.37-2.44,2.05-3.69-.4-.27-.65-.42-.92-.59-.92,1.49-1.72,2.92-2.66,4.28a8.19,8.19,0,0,1-3.69,3c-2.19.86-3.3,0-2.9-2.33C478.68,111.76,479.11,110,479.58,108.17Zm5.46-14a3.52,3.52,0,0,1,.67-.72c.76-.62,1.46-.46,1.59.5a9.34,9.34,0,0,1,0,3.12c-.68,3.45-.73,3.44-3.55,5.63l-3.35,2.61C481.66,101.32,482.78,97.54,485,94.22Z" transform="translate(-63.71 -50.76)"/><path class="cls-6" d="M500.66,100.61c.26-1.31.59-2.59.74-3.88.09-.83.05-2-.91-2.15-.63-.09-1.53.62-2.07,1.2a2.81,2.81,0,0,0-.37,2.9c1.05,3.4,2.06,6.81,3.1,10.21a5.46,5.46,0,0,1-2.2,6.54,58.18,58.18,0,0,1-5.8,3.57,2.45,2.45,0,0,1-3.35-.79,26.58,26.58,0,0,1-1.94-3.75,1,1,0,0,1,.21-.86c1.22-1.15,2.49-2.25,3.84-3.46.23.87.38,1.63.65,2.36a18.87,18.87,0,0,0,1.13,2.51c.42.76,1.21,1.29,2,.88a2.73,2.73,0,0,0,1-1.74,3.94,3.94,0,0,0-.28-1.83c-.95-3.23-1.9-6.45-2.93-9.65a4.81,4.81,0,0,1,1.41-5.49c2.21-1.93,4.46-3.82,6.81-5.57,1.5-1.12,2.71-.66,3.49,1A5.64,5.64,0,0,1,500.66,100.61Z" transform="translate(-63.71 -50.76)"/><path class="cls-6" d="M529.69,91.5c-1.88-.09-4.24-.3-7.07-.65-1.2-.16-2.49-.28-3.86-.44,0-.1.07-.2.1-.3l-.12.29h0q-3.37,10-6.67,20a6.74,6.74,0,0,0-.24,1.84c-.06,1.35.51,1.71,1.72,1.09a22.71,22.71,0,0,0,6.33-5.12c.83-.91,1.59-1.88,2.41-2.85.6.32,1,.59.49,1.26a44,44,0,0,1-11.42,11.1,12.67,12.67,0,0,1-1.56.79c-2.51,1.09-4,.43-4.33-2.23a14.33,14.33,0,0,1,.33-5.5c2.07-7,4.35-14,6.56-21a1.72,1.72,0,0,1,.07-.21L508.11,89l-8.05-1-5.13-.61c-1.82-.21-3.76-.37-5.8-.57-4.07-.37-8.53-.87-13.32-1.17-12.2-.92-26.46-1.59-41.35-1.69h0l-.5.15a13.34,13.34,0,0,1-1.62.44c-.56.11-.59.14-.79.29-.36.25-.41.61-.64,1a3.78,3.78,0,0,1-2.14,1.7c-.52.13-1.39.15-1.72-.3a1.55,1.55,0,0,1-.17-.35,2,2,0,0,1,0-1A2.18,2.18,0,0,1,428,84.46a4,4,0,0,1,2.06-.31.69.69,0,0,0,.32,0c.14-.05.14-.11.16-.16a.21.21,0,0,1,0-.06c-7.21,0-14.53.12-21.81.41l-8.85.39c-.73,0-1.46,0-2.19.1l-2.19.15-4.35.28-4.31.29c-1.42.09-2.84.18-4.25.32l-8.31.74c-1.36.12-2.71.23-4.05.36l-3.93.44q-3.24,9.75-6.47,19.49-1.8,5.4-3.53,10.81c-.19.61-.46.86-1.1.85-1.81,0-3.61,0-5.58,0,3.85-10.83,6.4-18.55,8.19-23.57l1.06-3c.41-1.31.83-2.62,1.24-3.93l-1.47.17-1.84.2-1.81.25-3.54.47-.24,0-1.17,3.48-.93,3c-2.31,7.15-4.66,14.29-7,21.45-.3.93-.6,1.6-1.75,1.53-1.55-.08-3.1-.07-4.65-.13-.63,0-.51-.44-.36-.85,1.39-3.71,2.89-7.37,4.15-11.12q2.75-8.24,5.45-16.49l-.23,0c-8.57,1.28-15.68,2.34-20.62,3.22s-7.78,1.21-7.82,1,2.8-.92,7.82-2.1c2.51-.58,5.56-1.32,9.1-2l5.64-1.11c2-.38,4.07-.82,6.27-1.17l.54-.1c1.47-4.45,2.92-8.92,4.37-13.38a20.75,20.75,0,0,0,.43-3.26l7.13-1c-1.91,5.65-3.75,11.12-5.59,16.57,2.37-.38,4.82-.82,7.36-1.15l1.57-.22q1.89-6,3.72-12a6.43,6.43,0,0,0,0-1.81c0-.12-.05-.24-.08-.36l7.42-1c-.66,2-1.22,3.58-1.76,5.19l-3,9.12c1.33-.18,2.67-.39,4-.54l4.16-.48,8.54-1,8.79-.78,4.48-.4c1.5-.13,3-.2,4.51-.31l9.11-.58,1-.05a4.37,4.37,0,0,1-1.47-.59c-.24-.16-.15-.14-1-.82-.36-.28-.5-.39-.49-.52,0-.3.81-.44,1-.48a4,4,0,0,1,2.6.26c1,.5.83,1,1.81,1.57a3.84,3.84,0,0,0,1.25.42c1.48-.06,3-.11,4.45-.18s3.06-.11,4.58-.18,3.05,0,4.57-.09l9.07-.14c3,0,6,0,8.92.05,5.88,0,11.61.26,17.11.43,2.75.06,5.43.25,8,.39l5.24.31a.69.69,0,0,0-.15-.07,6.92,6.92,0,0,0-1.42-.44c-.91-.17-3.54-.59-4.56-2.3-.36-.59-.75-1.69-.4-2,.09-.08.24-.09.55-.31a1,1,0,0,0,.38-.37c.13-.26,0-.44.06-.61s.8-.19.91-.18a6.73,6.73,0,0,1,3.73,1.84c1.57,1.92,1,2.88,2.48,4a3.84,3.84,0,0,0,1.25.62c4.77.36,9.23.75,13.31,1.08s8,.84,11.25,1.19,6.07.72,8.26,1l1,.14q1-2.74,2-5.47c.15-.39.51-.91.84-1,2.13-.43,4.28-.75,6.8-1.16-1.14,2.92-2.23,5.72-3.3,8.5.85.13,1.66.27,2.41.42,1.5.3,2.8.58,3.94.85a36.89,36.89,0,0,1,5.12,1.54c2.36,1,2.87,1.8,3,2.54S533.47,91.68,529.69,91.5Z" transform="translate(-63.71 -50.76)"/><path class="cls-6" d="M518.86,90.11c0,.1-.07.2-.1.3h0Z" transform="translate(-63.71 -50.76)"/><path d="M63.77,50.76h1v3.29h3.66V50.76h1v7.87h-1v-3.7H64.77v3.7h-1Z" transform="translate(-63.71 -50.76)"/><path d="M71.14,57.12c0-1.27,1.1-1.91,3.58-2.18,0-.75-.25-1.47-1.2-1.47a3.25,3.25,0,0,0-1.74.62l-.39-.67a4.32,4.32,0,0,1,2.29-.76c1.43,0,2,.94,2,2.39v3.58h-.82l-.08-.7h0a3.13,3.13,0,0,1-1.93.84A1.58,1.58,0,0,1,71.14,57.12Zm3.58.09V55.59c-2,.23-2.61.71-2.61,1.46s.45.93,1,.93A2.42,2.42,0,0,0,74.72,57.21Z" transform="translate(-63.71 -50.76)"/><path d="M77.55,52.8h.82l.08,1.06h0a2,2,0,0,1,1.66-1.2,1.3,1.3,0,0,1,.62.12l-.18.86a1.7,1.7,0,0,0-.57-.09c-.49,0-1.08.35-1.47,1.34v3.74h-1Z" transform="translate(-63.71 -50.76)"/><path d="M81.71,52.8h.82l.08.85h0a2.58,2.58,0,0,1,1.82-1,1.53,1.53,0,0,1,1.61,1.11A2.72,2.72,0,0,1,88,52.66c1.2,0,1.78.79,1.78,2.28v3.69h-1V55.06c0-1.08-.34-1.55-1.09-1.55a2.15,2.15,0,0,0-1.46.9v4.22h-1V55.06c0-1.08-.35-1.55-1.09-1.55a2.17,2.17,0,0,0-1.46.9v4.22h-1Z" transform="translate(-63.71 -50.76)"/><path d="M91.23,55.72a2.72,2.72,0,1,1,2.7,3.05A2.78,2.78,0,0,1,91.23,55.72Zm4.38,0c0-1.33-.68-2.24-1.68-2.24s-1.68.91-1.68,2.24S92.93,58,93.93,58,95.61,57.06,95.61,55.72Z" transform="translate(-63.71 -50.76)"/><path d="M98.21,50.76h1l2.85,5,.85,1.63h0c0-.8-.13-1.68-.13-2.51V50.76h1v7.87h-1l-2.85-5-.85-1.63h0c0,.8.13,1.64.13,2.46v4.12h-1Z" transform="translate(-63.71 -50.76)"/><path d="M105.45,55.72a2.81,2.81,0,0,1,2.62-3.06c1.49,0,2.33,1.06,2.33,2.73a2.9,2.9,0,0,1-.05.56h-3.93a1.94,1.94,0,0,0,1.94,2,2.51,2.51,0,0,0,1.45-.47l.36.65a3.51,3.51,0,0,1-1.93.6A2.78,2.78,0,0,1,105.45,55.72Zm4.07-.48c0-1.16-.52-1.8-1.43-1.8a1.79,1.79,0,0,0-1.67,1.8Z" transform="translate(-63.71 -50.76)"/><path d="M111.19,58l.48-.65a2.63,2.63,0,0,0,1.72.7c.77,0,1.15-.41,1.15-.91s-.69-.87-1.33-1.11c-.82-.29-1.74-.7-1.74-1.68s.75-1.65,2-1.65a2.92,2.92,0,0,1,1.81.65l-.47.63a2.23,2.23,0,0,0-1.33-.52c-.73,0-1.07.4-1.07.84s.63.77,1.29,1c.84.32,1.78.66,1.78,1.77,0,1-.75,1.73-2.13,1.73A3.48,3.48,0,0,1,111.19,58Z" transform="translate(-63.71 -50.76)"/><path d="M116.8,56.83V53.6h-.87v-.74l.91-.06.12-1.64h.82V52.8h1.58v.8h-1.58v3.24c0,.72.23,1.13.9,1.13a1.93,1.93,0,0,0,.67-.16l.19.75a3.57,3.57,0,0,1-1.08.21C117.22,58.77,116.8,58,116.8,56.83Z" transform="translate(-63.71 -50.76)"/><path d="M123.17,50.76h2.25c1.76,0,3,.59,3,2.32s-1.18,2.43-2.9,2.43h-1.3v3.12h-1Zm2.17,3.94c1.38,0,2-.5,2-1.62s-.69-1.51-2.08-1.51h-1.12V54.7Z" transform="translate(-63.71 -50.76)"/><path d="M129,57.12c0-1.27,1.1-1.91,3.58-2.18,0-.75-.25-1.47-1.2-1.47a3.28,3.28,0,0,0-1.74.62l-.38-.67a4.26,4.26,0,0,1,2.29-.76c1.42,0,2,.94,2,2.39v3.58h-.82l-.08-.7h0a3.13,3.13,0,0,1-1.93.84A1.58,1.58,0,0,1,129,57.12Zm3.58.09V55.59c-1.95.23-2.61.71-2.61,1.46s.45.93,1,.93A2.42,2.42,0,0,0,132.57,57.21Z" transform="translate(-63.71 -50.76)"/><path d="M135.41,56.83V53.6h-.87v-.74l.91-.06.12-1.64h.82V52.8H138v.8h-1.58v3.24c0,.72.23,1.13.9,1.13a1.93,1.93,0,0,0,.67-.16l.19.75a3.57,3.57,0,0,1-1.08.21C135.83,58.77,135.41,58,135.41,56.83Z" transform="translate(-63.71 -50.76)"/><path d="M139.22,56.83V53.6h-.86v-.74l.91-.06.12-1.64h.82V52.8h1.58v.8h-1.58v3.24c0,.72.23,1.13.9,1.13a1.93,1.93,0,0,0,.67-.16l.19.75a3.57,3.57,0,0,1-1.09.21C139.64,58.77,139.22,58,139.22,56.83Z" transform="translate(-63.71 -50.76)"/><path d="M142.51,55.72a2.8,2.8,0,0,1,2.62-3.06c1.48,0,2.32,1.06,2.32,2.73a4.18,4.18,0,0,1,0,.56h-3.93a1.94,1.94,0,0,0,1.94,2,2.51,2.51,0,0,0,1.45-.47l.35.65a3.45,3.45,0,0,1-1.92.6A2.78,2.78,0,0,1,142.51,55.72Zm4.07-.48c0-1.16-.53-1.8-1.44-1.8a1.79,1.79,0,0,0-1.67,1.8Z" transform="translate(-63.71 -50.76)"/><path d="M148.89,52.8h.82l.08,1.06h0a2,2,0,0,1,1.66-1.2,1.3,1.3,0,0,1,.62.12l-.18.86a1.75,1.75,0,0,0-.57-.09c-.49,0-1.08.35-1.47,1.34v3.74h-1Z" transform="translate(-63.71 -50.76)"/><path d="M153.05,52.8h.82l.08.84h0a2.78,2.78,0,0,1,2-1c1.23,0,1.78.79,1.78,2.28v3.69h-1V55.06c0-1.08-.32-1.55-1.1-1.55a2.22,2.22,0,0,0-1.59.9v4.22h-1Z" transform="translate(-63.71 -50.76)"/></svg>