<svg id="Layer_1" data-name="Layer 1" xmlns="http://www.w3.org/2000/svg" viewBox="0 0 595.28 841.89"><defs><style>.cls-1{fill:#3e7cb1;}</style></defs><path class="cls-1" d="M343,382.12c-8.65,3-14.73,8.91-18.81,16.87-4.69,9.16-7.76,18.95-10.24,28.94-.2.76-.33,1.81-.86,2.21-3.69,2.77-7.36,5.64-11.3,8-2.41,1.44-3.52.49-3-2.41a76.32,76.32,0,0,1,3.07-12c3.89-10.45,8.13-20.78,12.16-31.19,1.63-4.22.24-7.41-4.27-10.46-3.54-2.39-6-2.32-9.39,1-3.59,3.55-6.88,7.4-10.28,11.12-1,1.08-1.9,2.23-2.85,3.33a11.24,11.24,0,0,1,.64-3.75c.37-1.26.83-2.48,1.1-3.76.62-2.94-1.19-6.2-4.36-8.05-3.62-2.12-5.54-2.06-8.37.62-2.3,2.19-4.51,4.49-6.59,6.89-2.26,2.61-4.33,5.36-6.5,8.07l-.33-.22q1.65-8,3.31-16l-.88-.71c-4.64,1.46-9.28,2.9-13.89,4.4-1.26.42-1.59,1.2-1.25,2.66a13.36,13.36,0,0,1,.24,5.41,64.46,64.46,0,0,1-2.5,8.93q-7.56,21.56-15.26,43c-.63,1.74-.52,2.71,1.49,2.72,3.33,0,6.67,0,10,0,1.46,0,2-.7,2.48-2,3.62-11.06,7.38-22.09,11-33.16a29.94,29.94,0,0,1,6-11.06c3.39-3.84,6.68-7.78,10.07-11.63.42-.48,1.26-.57,1.9-.84a6.17,6.17,0,0,1,.41,2.2,58.84,58.84,0,0,1-1.78,6.36q-8,23.68-16.19,47.36c-.66,1.88-.38,2.85,1.64,2.87,3.43,0,6.85,0,10.26-.2a3,3,0,0,0,2-1.77c3.63-11.41,7.12-22.84,10.68-34.27.68-2.18,1-4.7,2.38-6.36C289.33,400,294.06,395,298.7,390a13.16,13.16,0,0,1,2.63-1.56,26,26,0,0,1-.53,4.6c-1.36,3.93-2.85,7.8-4.33,11.69-3.4,9-7,17.88-10.15,26.93a35.64,35.64,0,0,0-1.83,10.56c-.16,5.47,3.09,7.68,8.11,5.71a39.18,39.18,0,0,0,7.74-4.14c4.22-2.87,8.25-6,12.51-9.19.09.62.16,1.12.22,1.59C314.38,445.4,322,450.4,331,448.1a29.39,29.39,0,0,0,17.73-13c7.3-11.23,10.9-23.92,13.62-36.88C364.54,387.54,355.32,377.81,343,382.12Zm2.63,27c-2.87,9.93-5.81,19.86-10.79,29a19.85,19.85,0,0,1-3.67,4.82,3,3,0,0,1-5.1-1.61,16.37,16.37,0,0,1,.13-6A204.84,204.84,0,0,1,338.37,396a57.64,57.64,0,0,1,4.28-7.67c1.07-1.66,2.57-3.16,4.87-2.39s2.16,3,2.69,5C348.71,397,347.37,403.15,345.64,409.16Z"/><path class="cls-1" d="M350.21,447.13c7.14-8.68,11.41-17.93,16.11-27,6-11.6,11.66-23.26,17.36-34.92.54-1.1.3-2.38.44-3.81a51.65,51.65,0,0,1,12.93-1.31c.36,0,1,.68,1,1-.56,5.85-1.24,11.7-1.84,17.54q-1.26,12.22-2.42,24.46c-.36,3.73-.63,7.46-.94,11.19l.51.11c.62-1,1.31-2,1.85-3.07,7.15-13.62,14.41-27.22,19.72-41.23a44,44,0,0,0,1.73-5.82,16,16,0,0,0,0-3.29l10.53-1.12c-1.7,3.19-3.2,6-4.65,8.73q-11.7,22.4-23.37,44.79c-2.19,4.23-4.27,8.48-6.36,12.73-.36.74-.83,1.17-2.14,1.15-3.24-.06-6.47-.05-9.71,0-1.51,0-1.91-.46-1.81-1.37.45-4.19.91-8.38,1.3-12.57.56-5.94,1.12-11.88,1.59-17.83.5-6.27.91-12.54,1.35-18.82a1.76,1.76,0,0,0-.45-1.42c-.54,1.1-1.12,2.2-1.61,3.31q-9.62,22-19.22,44.09a13.27,13.27,0,0,0-1.16,2.64c-.31,1.69-1.8,2.21-4.05,2.14S352.43,447.22,350.21,447.13Z"/><path class="cls-1" d="M241.4,381.79c-.22-.13-.44-.24-.66-.35-3-1.68-5-1.55-7.5.89a26.15,26.15,0,0,0-5,5.92c-4.77,8.8-9.24,17.75-13.82,26.64-.3.57-.52,1.19-.79,1.77s-.57,1.12-.84,1.68c3.14-12.52,8.62-24.3,11.36-37.41-5.61,1.08-10.65,1.88-15.18,4.44-.51.29-.78,1.37-.8,2.1,0,2,.62,4.1.09,5.89-3,9.88-6.22,19.69-9.42,29.51a4.58,4.58,0,0,1-1.19,2.08c-4.18,3.63-8.32,7.29-12.69,10.66-1.2.95-3.08,1-4.67,1.48,0-1.6-.31-3.34.13-4.84,5.26-18,11.15-35.86,19.85-53.75-3.2.51-6,.53-8.51,1.42a112,112,0,0,0-28.83,14.81c-4.44,3.25-8.11,7.38-9.92,12.49a266.67,266.67,0,0,0-7.81,25.89c-1,4-.75,8.4-.3,12.55.37,3.32,2.16,3.89,5,2a110.46,110.46,0,0,0,9.24-6.81c2.69-2.21,5.12-4.7,7.47-6.87.26,3.4.24,6.87.82,10.24.7,4.11,2.69,5.28,6.43,3.38a84.69,84.69,0,0,0,12.12-7.7c3.4-2.52,6.38-5.59,10.07-8.9-2.21,5.75-4.15,10.89-6.21,16.31,4.09,1,8,.78,11.83.56a3.4,3.4,0,0,0,3.29-2.55c3.89-9.68,7.68-19.37,11.94-28.87,3-6.75,6.63-13.26,10.19-19.72.76-1.39,2.55-2.23,3.87-3.3.07,1.69.53,3.48.12,5.07-.84,3.18-2.15,6.23-3.56,10.17,1.56-.4,2.82-.38,3.64-1a47.83,47.83,0,0,0,13.11-14.66C247.55,387.5,247,385.18,241.4,381.79Zm-69.33,34.38a59.34,59.34,0,0,0-2.15,7.23c-1.17,5.59-5.3,8.78-9.34,12.07a5.81,5.81,0,0,1-2.22.6,5.93,5.93,0,0,1-.46-2.26c1.3-6.05,2.3-12.18,4.15-18A165.76,165.76,0,0,1,169.46,397c2.34-5.11,6.92-7.76,12.36-9.2C178.5,397.42,175.27,406.78,172.07,416.17Z"/><path class="cls-1" d="M527.27,377.48c-.07.25-.16.48-.24.73h0Z"/><path class="cls-1" d="M430.33,422.05a6.42,6.42,0,0,1,2-3.09c4-3.21,8.18-6.22,12.18-9.44A120.52,120.52,0,0,0,455.63,400c4.81-5,5.63-11.1,2.85-16.41-1.5-2.87-3.49-4-6.63-3.2a43.4,43.4,0,0,0-9.14,3.25c-8.84,4.55-16.24,10.67-19.94,20.27-2,5.31-4.17,10.63-5.74,16.09-1.42,5-2.79,10.11-3,15.24-.47,9.35,7.89,15.3,16.73,12.46,7.47-2.41,12.54-7.73,16.67-14.05,1.88-2.88,3.38-6,5.08-9.11-1-.65-1.61-1-2.29-1.46-2.26,3.69-4.25,7.23-6.57,10.57a20.05,20.05,0,0,1-9.11,7.51c-5.41,2.12-8.14,0-7.16-5.75C428.12,430.9,429.18,426.47,430.33,422.05Zm13.47-34.44a8.44,8.44,0,0,1,1.66-1.77c1.87-1.53,3.6-1.13,3.93,1.24a23.35,23.35,0,0,1,0,7.69c-1.68,8.53-1.79,8.51-8.76,13.91l-8.26,6.45C435.47,405.14,438.23,395.81,443.8,387.61Z"/><path class="cls-1" d="M482.36,403.39c.64-3.24,1.46-6.38,1.81-9.58.23-2.05.14-5-2.23-5.31-1.56-.22-3.78,1.54-5.1,3-1.84,2-1.73,4.56-.93,7.15,2.61,8.39,5.08,16.82,7.67,25.21,2.07,6.71.09,12.18-5.43,16.13a138.83,138.83,0,0,1-14.32,8.81,6,6,0,0,1-8.27-1.93,67.19,67.19,0,0,1-4.81-9.27,2.37,2.37,0,0,1,.53-2.11c3-2.84,6.16-5.56,9.49-8.53.57,2.12.93,4,1.59,5.81a47.38,47.38,0,0,0,2.8,6.21c1,1.85,3,3.16,4.88,2.15,1.26-.68,2.14-2.72,2.48-4.3.29-1.39-.26-3.05-.69-4.51-2.36-8-4.71-15.92-7.25-23.82-1.72-5.35-.6-9.94,3.5-13.54,5.43-4.78,11-9.44,16.8-13.76,3.69-2.76,6.67-1.62,8.62,2.53A13.92,13.92,0,0,1,482.36,403.39Z"/><path class="cls-1" d="M554,380.9c-4.65-.22-10.48-.74-17.45-1.59-3-.4-6.14-.71-9.54-1.1.08-.25.17-.48.24-.73l-.28.72h0q-8.32,24.62-16.46,49.28A17.31,17.31,0,0,0,510,432q-.23,5,4.26,2.68c6.1-3.1,11-7.65,15.61-12.63,2-2.25,3.94-4.65,5.95-7,1.49.8,2.46,1.47,1.21,3.12-8,10.56-16.85,20.22-28.18,27.38a28.9,28.9,0,0,1-3.84,2c-6.21,2.69-9.93,1.07-10.69-5.51a34.79,34.79,0,0,1,.82-13.57c5.09-17.33,10.73-34.51,16.18-51.74.06-.17.1-.33.17-.51l-10.72-1.53c-5.3-.64-12-1.43-19.86-2.39l-12.66-1.5c-4.51-.53-9.29-.92-14.31-1.41-10.05-.94-21.05-2.15-32.87-2.89-30.12-2.28-65.34-3.92-102.07-4.19h0c-.35.11-.76.25-1.25.39a35.47,35.47,0,0,1-4,1.09c-1.38.27-1.46.32-2,.69-.88.63-1,1.51-1.58,2.35-.83,1.19-2.47,3.57-5.28,4.22-1.29.3-3.42.37-4.24-.74a3.43,3.43,0,0,1-.41-.88,5,5,0,0,1-.09-2.34,5.48,5.48,0,0,1,3-3.51,9.82,9.82,0,0,1,5.08-.77,1.67,1.67,0,0,0,.77,0,.51.51,0,0,0,.41-.38,1,1,0,0,1,.09-.17c-17.79,0-35.86.31-53.82,1l-21.85.94c-1.8.09-3.61.13-5.41.26l-5.41.35-10.72.71-10.63.71c-3.53.22-7,.44-10.5.78l-20.51,1.83c-3.36.3-6.69.56-10,.9l-9.71,1.09q-8,24-16,48.09-4.43,13.32-8.71,26.69c-.47,1.51-1.14,2.12-2.72,2.09-4.46-.07-8.91,0-13.78,0,9.5-26.72,15.81-45.79,20.22-58.18l2.61-7.27q1.55-4.85,3.07-9.7l-3.62.41-4.55.5L123,374l-8.74,1.16-.59.08c-1,2.86-1.93,5.72-2.89,8.59l-2.28,7.29c-5.72,17.66-11.52,35.28-17.21,52.95-.74,2.3-1.49,4-4.33,3.79-3.81-.21-7.63-.18-11.46-.32-1.57-.07-1.28-1.09-.9-2.1,3.44-9.15,7.14-18.2,10.23-27.46q6.8-20.31,13.46-40.7a5.58,5.58,0,0,1-.57.08c-21.14,3.16-38.68,5.79-50.88,8s-19.21,3-19.3,2.57,6.9-2.26,19.29-5.18c6.19-1.44,13.72-3.25,22.46-4.9l13.92-2.74c4.9-.94,10.06-2,15.49-2.89L100,372q5.42-16.5,10.77-33c.73-2.25.65-4.77,1.06-8l17.61-2.45c-4.71,14-9.26,27.46-13.79,40.91,5.84-1,11.89-2,18.16-2.84l3.87-.54q4.65-14.81,9.18-29.65c.43-1.37.06-3,.06-4.46-.07-.3-.14-.59-.2-.89l18.32-2.5c-1.65,4.86-3,8.83-4.35,12.82l-7.47,22.5c3.27-.44,6.59-1,9.94-1.33l10.26-1.18,21.08-2.4L216.22,357l11.05-1c3.69-.31,7.41-.5,11.14-.76l22.48-1.43,2.46-.12a11,11,0,0,1-3.62-1.45c-.61-.4-.37-.36-2.52-2-.88-.7-1.24-.95-1.21-1.29.07-.73,2-1.08,2.56-1.18a10.15,10.15,0,0,1,6.43.63c2.55,1.24,2,2.55,4.46,3.89a9.3,9.3,0,0,0,3.09,1l11-.43,11.31-.45c3.76-.15,7.53-.14,11.28-.23l22.38-.33c7.41-.07,14.75.09,22,.12,14.52,0,28.66.63,42.24,1,6.78.16,13.41.63,19.87,1l12.93.75c-.11-.06-.24-.11-.38-.17a15.38,15.38,0,0,0-3.48-1.07c-2.27-.44-8.74-1.47-11.27-5.68-.88-1.47-1.85-4.18-1-4.89.23-.2.6-.22,1.35-.76.49-.35.78-.55,1-.92.31-.65-.09-1.08.15-1.51.39-.67,2-.48,2.25-.44a16.7,16.7,0,0,1,9.2,4.54c3.87,4.74,2.56,7.1,6.13,9.77a10.14,10.14,0,0,0,3.08,1.55c11.77.87,22.78,1.85,32.84,2.65,10.36,1,19.68,2.08,27.78,2.93s15,1.78,20.4,2.51l2.53.35c1.66-4.5,3.33-9,5-13.49.37-1,1.24-2.26,2.07-2.42,5.25-1.07,10.56-1.84,16.77-2.88-2.79,7.22-5.49,14.14-8.14,21,2.11.33,4.1.66,6,1,3.68.72,6.9,1.42,9.73,2.1a90.73,90.73,0,0,1,12.62,3.8c5.83,2.37,7.1,4.42,7.49,6.25C568,380.62,563.33,381.35,554,380.9Z"/><path class="cls-1" d="M527.27,377.48c-.07.25-.16.48-.24.73h0Z"/></svg>